<mxfile host="app.diagrams.net" modified="2021-11-25T09:56:58.333Z" agent="5.0 (Windows NT 10.0; Win64; x64) AppleWebKit/537.36 (KHTML, like Gecko) Chrome/96.0.4664.45 Safari/537.36" etag="EwmxI0PJIhApS9t-qzQY" version="15.8.6" type="github">
  <diagram name="Page-1" id="e7e014a7-5840-1c2e-5031-d8a46d1fe8dd">
    <mxGraphModel dx="2591" dy="706" grid="1" gridSize="10" guides="1" tooltips="1" connect="1" arrows="1" fold="1" page="1" pageScale="1" pageWidth="1169" pageHeight="826" background="#ffffff" math="0" shadow="0">
      <root>
        <mxCell id="0" />
        <mxCell id="1" parent="0" />
        <mxCell id="VFODcZ8JSwoLVpJ5h68R-8" value="广润科技" style="swimlane;whiteSpace=wrap" parent="1" vertex="1">
          <mxGeometry x="910" y="128" width="315" height="602" as="geometry">
            <mxRectangle x="910" y="128" width="80" height="23" as="alternateBounds" />
          </mxGeometry>
        </mxCell>
        <mxCell id="VFODcZ8JSwoLVpJ5h68R-9" value="" style="endArrow=classic;html=1;strokeColor=#FF0000;fontColor=#FFFFFF;exitX=0.5;exitY=1;exitDx=0;exitDy=0;entryX=0.5;entryY=0;entryDx=0;entryDy=0;strokeWidth=2;" parent="VFODcZ8JSwoLVpJ5h68R-8" edge="1">
          <mxGeometry width="50" height="50" relative="1" as="geometry">
            <mxPoint x="120" y="171" as="sourcePoint" />
            <mxPoint x="120" y="171" as="targetPoint" />
            <Array as="points" />
          </mxGeometry>
        </mxCell>
        <mxCell id="DpPIe5LsrQuxPPb24lTz-1" value="医院" style="swimlane;whiteSpace=wrap;startSize=23;" parent="1" vertex="1">
          <mxGeometry x="175" y="128" width="290" height="600" as="geometry" />
        </mxCell>
        <mxCell id="xOAtnNTPI9Kn5_C6s09A-5" value="聚合码" style="rounded=1;whiteSpace=wrap;html=1;" vertex="1" parent="DpPIe5LsrQuxPPb24lTz-1">
          <mxGeometry x="105" y="74" width="120" height="60" as="geometry" />
        </mxCell>
        <mxCell id="xOAtnNTPI9Kn5_C6s09A-9" value="第一步" style="text;html=1;align=center;verticalAlign=middle;resizable=0;points=[];autosize=1;strokeColor=none;fillColor=none;" vertex="1" parent="DpPIe5LsrQuxPPb24lTz-1">
          <mxGeometry x="135" y="54" width="50" height="20" as="geometry" />
        </mxCell>
        <mxCell id="xOAtnNTPI9Kn5_C6s09A-18" value="" style="endArrow=classic;html=1;rounded=0;exitX=1;exitY=0.5;exitDx=0;exitDy=0;" edge="1" parent="DpPIe5LsrQuxPPb24lTz-1" source="xOAtnNTPI9Kn5_C6s09A-5">
          <mxGeometry width="50" height="50" relative="1" as="geometry">
            <mxPoint x="225" y="142" as="sourcePoint" />
            <mxPoint x="425" y="102" as="targetPoint" />
          </mxGeometry>
        </mxCell>
        <mxCell id="DpPIe5LsrQuxPPb24lTz-6" value="交行" style="swimlane;whiteSpace=wrap" parent="1" vertex="1">
          <mxGeometry x="910" y="128" width="315" height="602" as="geometry">
            <mxRectangle x="910" y="128" width="80" height="23" as="alternateBounds" />
          </mxGeometry>
        </mxCell>
        <mxCell id="DpPIe5LsrQuxPPb24lTz-7" value="" style="endArrow=classic;html=1;strokeColor=#FF0000;fontColor=#FFFFFF;exitX=0.5;exitY=1;exitDx=0;exitDy=0;entryX=0.5;entryY=0;entryDx=0;entryDy=0;strokeWidth=2;" parent="DpPIe5LsrQuxPPb24lTz-6" edge="1">
          <mxGeometry width="50" height="50" relative="1" as="geometry">
            <mxPoint x="120" y="171" as="sourcePoint" />
            <mxPoint x="120" y="171" as="targetPoint" />
            <Array as="points" />
          </mxGeometry>
        </mxCell>
        <mxCell id="xOAtnNTPI9Kn5_C6s09A-8" value="聚合码接口" style="rounded=1;whiteSpace=wrap;html=1;" vertex="1" parent="DpPIe5LsrQuxPPb24lTz-6">
          <mxGeometry x="90" y="76" width="95" height="46" as="geometry" />
        </mxCell>
        <mxCell id="DpPIe5LsrQuxPPb24lTz-14" value="广润" style="swimlane;whiteSpace=wrap;startSize=23;" parent="1" vertex="1">
          <mxGeometry x="465" y="128" width="445" height="602" as="geometry">
            <mxRectangle x="465" y="128" width="150" height="23" as="alternateBounds" />
          </mxGeometry>
        </mxCell>
        <mxCell id="xOAtnNTPI9Kn5_C6s09A-7" value="聚合平台" style="rounded=1;whiteSpace=wrap;html=1;" vertex="1" parent="DpPIe5LsrQuxPPb24lTz-14">
          <mxGeometry x="135" y="76" width="95" height="46" as="geometry" />
        </mxCell>
        <mxCell id="xOAtnNTPI9Kn5_C6s09A-19" value="调用广润生成聚合码" style="text;html=1;align=center;verticalAlign=middle;resizable=0;points=[];autosize=1;strokeColor=none;fillColor=none;" vertex="1" parent="DpPIe5LsrQuxPPb24lTz-14">
          <mxGeometry x="-40" y="82" width="120" height="20" as="geometry" />
        </mxCell>
        <mxCell id="xOAtnNTPI9Kn5_C6s09A-22" value="聚合支付平台" style="whiteSpace=wrap;html=1;" vertex="1" parent="DpPIe5LsrQuxPPb24lTz-14">
          <mxGeometry x="122.5" y="202" width="120" height="60" as="geometry" />
        </mxCell>
        <mxCell id="xOAtnNTPI9Kn5_C6s09A-10" value="医院" style="swimlane;whiteSpace=wrap;startSize=23;" vertex="1" parent="1">
          <mxGeometry x="-5" y="128" width="180" height="602" as="geometry" />
        </mxCell>
        <mxCell id="xOAtnNTPI9Kn5_C6s09A-13" value="患者" style="ellipse;whiteSpace=wrap;html=1;" vertex="1" parent="xOAtnNTPI9Kn5_C6s09A-10">
          <mxGeometry x="45" y="92" width="90" height="30" as="geometry" />
        </mxCell>
        <mxCell id="xOAtnNTPI9Kn5_C6s09A-23" value="第二步" style="text;html=1;align=center;verticalAlign=middle;resizable=0;points=[];autosize=1;strokeColor=none;fillColor=none;" vertex="1" parent="xOAtnNTPI9Kn5_C6s09A-10">
          <mxGeometry x="55" y="202" width="50" height="20" as="geometry" />
        </mxCell>
        <mxCell id="xOAtnNTPI9Kn5_C6s09A-14" value="" style="endArrow=classic;html=1;rounded=0;entryX=0;entryY=0.5;entryDx=0;entryDy=0;entryPerimeter=0;" edge="1" parent="1" source="xOAtnNTPI9Kn5_C6s09A-13" target="xOAtnNTPI9Kn5_C6s09A-5">
          <mxGeometry width="50" height="50" relative="1" as="geometry">
            <mxPoint x="140" y="147" as="sourcePoint" />
            <mxPoint x="270" y="232" as="targetPoint" />
          </mxGeometry>
        </mxCell>
        <mxCell id="xOAtnNTPI9Kn5_C6s09A-20" value="" style="endArrow=classic;html=1;rounded=0;entryX=0;entryY=0.5;entryDx=0;entryDy=0;exitX=1;exitY=0.5;exitDx=0;exitDy=0;" edge="1" parent="1" source="xOAtnNTPI9Kn5_C6s09A-7" target="xOAtnNTPI9Kn5_C6s09A-8">
          <mxGeometry width="50" height="50" relative="1" as="geometry">
            <mxPoint x="700" y="270" as="sourcePoint" />
            <mxPoint x="750" y="220" as="targetPoint" />
          </mxGeometry>
        </mxCell>
        <mxCell id="xOAtnNTPI9Kn5_C6s09A-21" value="调用交行生成聚合码返回给广润" style="text;html=1;align=center;verticalAlign=middle;resizable=0;points=[];autosize=1;strokeColor=none;fillColor=none;" vertex="1" parent="1">
          <mxGeometry x="740" y="210" width="180" height="20" as="geometry" />
        </mxCell>
      </root>
    </mxGraphModel>
  </diagram>
</mxfile>
